<svg width="264" height="264" xmlns="http://www.w3.org/2000/svg" xmlns:xlink="http://www.w3.org/1999/xlink" xml:space="preserve" overflow="hidden"><defs><clipPath id="clip0"><rect x="76" y="393" width="264" height="264"/></clipPath></defs><g clip-path="url(#clip0)" transform="translate(-76 -393)"><path d="M207.509 393.08C210.344 393.08 212.547 392.97 214.741 393.11 216.834 393.24 218.907 393.631 221.001 393.901 222.954 394.152 224.957 393.421 226.89 394.643 227.681 395.133 229.053 394.623 230.135 394.753 231.007 394.863 231.818 395.364 232.689 395.524 236.996 396.315 241.203 397.467 245.44 398.529 253.813 400.622 261.595 404.088 269.137 408.014 275.067 411.099 280.826 414.584 286.164 418.731 292.414 423.579 298.724 428.366 304.003 434.266 307.428 438.092 310.593 442.168 313.748 446.255 318.997 453.036 323.273 460.337 327.059 467.979 329.764 473.448 332.398 479.037 333.89 484.906 334.902 488.873 336.394 492.769 336.815 496.955 337.095 499.74 337.917 502.534 338.458 505.329 338.998 508.133 338.648 510.978 339.249 513.642 340.671 519.992 339.589 526.352 339.98 532.692 340.1 534.695 338.818 536.438 339.089 538.542 339.319 540.334 339.609 542.308 338.337 543.96 338.708 547.856 337.196 551.482 336.534 555.208 335.853 559.054 334.722 562.96 333.239 566.586 331.897 569.871 331.086 573.337 329.423 576.562 327.871 579.577 326.819 582.902 325.126 585.897 321.831 591.736 318.576 597.596 314.429 602.914 311.975 606.059 309.341 609.054 306.937 612.209 304.534 615.374 301.819 618.198 298.905 620.762 292.775 626.161 286.635 631.65 279.634 635.906 274.626 638.961 269.638 642.116 264.25 644.51 261.004 645.952 257.769 647.495 254.404 648.587 251.129 649.648 247.903 651 244.628 651.792 240.502 652.793 236.455 654.496 232.088 654.416 230.366 656.139 228.042 654.887 226.009 655.658 224.086 656.379 221.632 655.598 219.598 656.149 215.181 657.351 210.734 656.87 206.317 656.84 201.349 656.8 196.311 656.72 191.434 655.908 189.07 655.518 186.586 655.498 184.212 654.546 182.089 653.685 179.344 654.356 177.231 653.494 173.645 652.032 169.859 651.421 166.254 650.129 159.673 647.775 153.033 645.472 146.963 641.986 141.154 638.661 135.254 635.436 129.956 631.219 126.621 628.565 123.325 625.901 120.1 623.106 118.287 621.534 116.354 620.091 114.702 618.339 108.321 611.588 102.292 604.516 97.2538 596.704 94.3492 592.207 91.8252 587.439 89.3613 582.672 86.6269 577.353 84.7139 571.684 82.7007 566.055 81.4987 562.69 81.1181 559.094 79.4956 555.839 78.8946 554.637 79.3954 553.115 78.7444 551.622 77.883 549.659 78.0032 547.245 77.7929 545.022 77.6226 543.189 76.6811 541.546 76.8814 539.583 77.0617 537.79 77.4022 535.857 76.1803 534.125 75.8598 533.664 76.1302 532.782 76.1302 532.101 76.1302 529.487 76.3305 526.863 76.0901 524.269 75.5893 518.83 77.3121 513.532 76.9515 508.123 78.3537 504.608 77.6126 500.611 79.4255 497.196 80.0064 489.794 82.911 482.963 85.3949 476.162 87.909 469.281 91.3344 462.651 95.4309 456.391 97.8247 452.745 100.349 449.149 102.632 445.403 103.644 443.741 105.156 442.328 106.438 440.816 110.104 436.469 113.87 432.132 118.087 428.336 123.856 423.158 129.866 418.15 136.476 414.074 141.464 410.999 146.472 407.854 151.851 405.46 155.096 404.018 158.331 402.475 161.696 401.383 164.972 400.322 168.197 398.97 171.472 398.178 175.598 397.177 179.645 395.484 184.012 395.554 185.735 393.831 188.058 395.083 190.092 394.312 192.015 393.581 194.478 394.402 196.492 393.811 200.388 392.68 204.274 393.331 207.509 393.08ZM216.934 548.698C217.275 543.84 217.725 539.163 217.906 534.465 218.066 530.349 217.876 526.222 217.956 522.105 218.036 518.089 217.395 514.013 218.767 510.086 219.028 499.76 218.136 489.403 219.548 479.097 219.839 476.944 219.508 474.7 219.618 472.507 219.709 470.603 219.488 468.841 218.417 467.388 211.766 464.634 205.095 465.435 199.036 466.537 197.864 467.408 197.103 467.979 196.482 468.45 196.712 474.92 196.532 481.11 197.203 487.35 198.164 496.374 196.792 505.509 198.024 514.623 198.775 520.152 198.405 525.881 198.094 531.5 197.784 537.079 199.396 542.508 199.006 548.057 198.986 548.287 199.186 548.527 199.336 548.918 200.117 549.379 201.009 549.91 202.071 550.541 205.145 550.541 208.441 550.461 211.736 550.571 213.689 550.641 215.372 550.21 216.934 548.698ZM196.512 564.743C196.512 567.468 196.522 569.932 196.512 572.395 196.502 575.691 196.101 579.056 198.505 581.58 201.43 583.804 204.685 584.374 208.15 584.384 211.766 584.384 215.051 583.583 217.595 581.64 218.377 580.168 218.967 579.046 219.538 577.964 219.538 573.577 219.538 569.21 219.538 565.284 217.695 560.797 214.38 559.475 210.214 559.615 206.888 559.725 203.513 559.174 199.667 560.897 198.885 561.839 197.634 563.371 196.512 564.743Z" fill="#9C5BCD"/></g></svg>