<svg width="264" height="264" xmlns="http://www.w3.org/2000/svg" xmlns:xlink="http://www.w3.org/1999/xlink" xml:space="preserve" overflow="hidden"><defs><clipPath id="clip0"><rect x="424" y="393" width="264" height="264"/></clipPath></defs><g clip-path="url(#clip0)" transform="translate(-424 -393)"><path d="M556.385 393.05C629.212 393.05 687.76 451.968 688 524.975 688.24 597.423 628.523 657.47 555.066 656.95 482.758 656.44 423.46 596.843 424 523.876 424.54 451.608 483.357 393.05 556.385 393.05ZM538.408 483.075C538.458 483.075 538.498 483.075 538.548 483.075 538.548 479.108 538.827 475.101 538.408 471.184 538.248 469.715 536.619 467.446 535.37 467.227 531.393 466.527 527.216 466.097 523.219 466.527 516.893 467.217 516.663 467.736 516.853 474.062 517.513 496.486 518.282 518.909 518.962 541.343 519.211 549.527 519.931 550.287 528.305 550.147 529.664 550.127 531.023 549.927 532.382 549.777 535.46 549.447 536.829 547.889 536.889 544.631 537.308 524.106 537.888 503.59 538.408 483.075ZM573.402 484.304C573.432 484.304 573.472 484.304 573.502 484.304 574.062 502.901 574.682 521.497 575.151 540.094 575.391 549.647 576.19 550.547 585.794 550.127 587.013 550.077 588.232 549.827 589.451 549.647 591.859 549.297 592.958 547.918 593.028 545.46 593.728 520.988 594.457 496.505 595.227 472.033 595.327 469.025 593.968 467.127 591.11 466.957 586.513 466.677 581.896 466.727 577.29 466.867 574.442 466.957 573.333 468.795 573.392 471.583 573.472 475.82 573.402 480.067 573.402 484.304ZM584.425 559.67C575.511 559.62 572.783 562.378 572.743 571.462 572.703 580.545 575.671 583.813 584.035 583.883 592.259 583.953 596.166 580.365 595.866 571.811 595.557 562.868 593.868 559.68 584.425 559.67ZM539.307 571.761C539.307 562.548 536.599 559.73 527.795 559.7 518.062 559.66 516.543 562.958 516.174 571.731 515.814 580.295 519.741 583.943 527.995 583.873 536.209 583.803 539.307 580.485 539.307 571.761Z" fill="#9C5BCD"/></g></svg>