<?xml version="1.0" standalone="no"?>
<!DOCTYPE svg PUBLIC "-//W3C//DTD SVG 20010904//EN"
 "http://www.w3.org/TR/2001/REC-SVG-20010904/DTD/svg10.dtd">
<svg version="1.0" xmlns="http://www.w3.org/2000/svg"
 width="512.000000pt" height="512.000000pt" viewBox="0 0 512.000000 512.000000"
 preserveAspectRatio="xMidYMid meet">

<g transform="translate(0.000000,512.000000) scale(0.100000,-0.100000)"
fill="#ffffff" stroke="none">
<path d="M2103 5106 c-101 -33 -186 -106 -229 -200 -13 -28 -44 -146 -70 -261
l-46 -210 -87 -42 c-98 -47 -202 -109 -278 -164 l-52 -39 -208 67 c-193 63
-214 67 -298 67 -77 1 -99 -3 -147 -26 -100 -46 -137 -95 -338 -443 -224 -390
-233 -410 -228 -520 2 -70 8 -92 38 -151 30 -59 58 -89 200 -221 l165 -152 0
-251 0 -251 -162 -150 c-90 -82 -174 -167 -187 -188 -61 -95 -74 -231 -33
-331 13 -30 106 -199 207 -375 206 -357 244 -405 347 -446 45 -18 78 -23 143
-23 77 0 105 7 293 67 l209 66 51 -38 c76 -55 180 -117 278 -164 l86 -41 47
-211 c26 -115 58 -233 71 -262 33 -74 96 -138 174 -176 l66 -32 445 0 445 0
66 32 c78 39 141 102 174 176 13 29 45 147 71 262 l47 211 97 47 c53 26 148
80 210 121 l112 75 207 -67 c187 -60 214 -66 291 -66 65 0 98 5 143 23 103 41
141 89 350 453 104 180 198 351 209 380 16 42 19 70 16 138 -6 135 -35 178
-238 367 l-165 153 0 250 -1 249 167 155 c146 136 171 163 201 223 42 86 50
188 21 273 -31 92 -390 707 -446 763 -71 73 -141 101 -252 101 -84 0 -103 -4
-298 -67 l-208 -67 -52 38 c-76 56 -180 118 -278 165 l-87 42 -46 210 c-26
115 -58 233 -71 262 -33 74 -96 138 -174 176 l-66 32 -430 2 c-337 2 -439 -1
-472 -11z m710 -1300 c182 -54 315 -134 442 -267 121 -127 196 -261 237 -426
29 -113 31 -332 5 -435 -50 -202 -142 -355 -298 -500 -111 -103 -149 -154
-181 -240 l-21 -58 -438 0 -437 0 -7 33 c-16 75 -66 146 -177 249 -193 179
-283 337 -323 564 -71 408 135 814 511 1006 166 85 278 110 469 103 101 -3
149 -9 218 -29z m185 -2238 c-3 -57 -12 -119 -21 -139 -23 -55 -72 -104 -128
-128 -48 -21 -62 -22 -302 -19 l-252 3 -48 28 c-51 30 -91 82 -107 138 -6 18
-13 75 -16 126 l-7 93 443 0 443 0 -5 -102z"/>
</g>
</svg>
