<svg width="264" height="264" xmlns="http://www.w3.org/2000/svg" xmlns:xlink="http://www.w3.org/1999/xlink" xml:space="preserve" overflow="hidden"><defs><clipPath id="clip0"><rect x="772" y="393" width="264" height="264"/></clipPath></defs><g clip-path="url(#clip0)" transform="translate(-772 -393)"><path d="M1035.24 513.652C1034.64 510.988 1034.99 508.133 1034.45 505.339 1033.91 502.544 1033.09 499.75 1032.8 496.965 1032.37 492.779 1030.89 488.883 1029.88 484.916 1028.39 479.047 1025.75 473.458 1023.05 467.989 1019.27 460.357 1014.99 453.046 1009.74 446.265 1006.58 442.188 1003.42 438.112 999.993 434.276 994.714 428.376 988.404 423.589 982.154 418.741 976.816 414.594 971.057 411.109 965.127 408.024 957.585 404.098 949.803 400.632 941.43 398.539 937.193 397.477 932.986 396.325 928.679 395.534 927.808 395.374 926.997 394.873 926.125 394.763 925.043 394.623 923.671 395.143 922.88 394.653 920.947 393.431 918.934 394.162 916.991 393.911 914.907 393.641 912.824 393.25 910.731 393.12 908.537 392.98 906.334 393.09 903.499 393.09 900.264 393.341 896.378 392.69 892.492 393.831 890.479 394.422 888.005 393.601 886.091 394.332 884.058 395.103 881.735 393.841 880.012 395.574 875.645 395.504 871.598 397.197 867.472 398.198 864.187 399 860.962 400.342 857.696 401.403 854.331 402.495 851.096 404.028 847.851 405.48 842.462 407.874 837.464 411.019 832.476 414.094 825.866 418.17 819.856 423.188 814.087 428.366 809.87 432.162 806.104 436.499 802.438 440.846 801.156 442.359 799.654 443.771 798.632 445.433 796.359 449.179 793.825 452.765 791.431 456.421 787.344 462.661 783.919 469.281 781.405 476.172 778.921 482.973 776.016 489.804 775.435 497.206 773.623 500.621 774.364 504.618 772.962 508.133 773.322 513.552 771.589 518.84 772.1 524.279 772.341 526.863 772.14 529.497 772.14 532.111 772.14 532.802 771.87 533.674 772.19 534.135 773.412 535.867 773.072 537.8 772.891 539.593 772.691 541.556 773.633 543.199 773.803 545.032 774.013 547.255 773.893 549.669 774.754 551.632 775.405 553.125 774.905 554.647 775.506 555.849 777.128 559.104 777.509 562.7 778.711 566.065 780.724 571.694 782.627 577.363 785.371 582.682 787.825 587.449 790.349 592.217 793.264 596.714 798.302 604.526 804.331 611.598 810.712 618.349 812.364 620.091 814.297 621.544 816.11 623.116 819.335 625.911 822.631 628.575 825.966 631.229 831.254 635.446 837.154 638.661 842.973 641.996 849.043 645.472 855.683 647.785 862.264 650.139 865.869 651.431 869.655 652.032 873.241 653.504 875.354 654.366 878.099 653.705 880.222 654.556 882.606 655.518 885.09 655.528 887.444 655.918 892.321 656.73 897.359 656.81 902.327 656.85 906.744 656.88 911.191 657.361 915.608 656.159 917.642 655.608 920.096 656.399 922.019 655.668 924.052 654.897 926.376 656.159 928.098 654.426 932.465 654.496 936.512 652.803 940.638 651.802 943.924 651 947.149 649.648 950.414 648.597 953.779 647.505 957.014 645.972 960.26 644.52 965.648 642.126 970.636 638.961 975.644 635.917 982.645 631.65 988.775 626.171 994.915 620.772 997.829 618.208 1000.53 615.384 1002.95 612.219 1005.34 609.064 1007.99 606.069 1010.44 602.924 1014.59 597.606 1017.84 591.746 1021.14 585.907 1022.83 582.912 1023.88 579.587 1025.43 576.572 1027.1 573.347 1027.91 569.881 1029.25 566.596 1030.73 562.97 1031.86 559.064 1032.54 555.218 1033.2 551.502 1034.72 547.866 1034.35 543.97 1035.62 542.308 1035.33 540.344 1035.1 538.552 1034.83 536.448 1036.11 534.705 1035.99 532.702 1035.58 526.372 1036.66 520.002 1035.24 513.652ZM862.654 577.964C862.083 579.036 861.492 580.158 860.711 581.64 858.167 583.573 854.882 584.384 851.266 584.384 847.801 584.384 844.545 583.804 841.621 581.58 839.217 579.056 839.618 575.681 839.628 572.395 839.638 569.932 839.628 567.468 839.628 564.743 840.749 563.371 842.001 561.849 842.793 560.887 846.639 559.174 850.014 559.715 853.339 559.605 857.506 559.475 860.821 560.797 862.664 565.274 862.654 569.21 862.654 573.577 862.654 577.964ZM862.674 479.097C861.262 489.403 862.153 499.76 861.893 510.086 860.531 514.023 861.162 518.089 861.082 522.105 861.002 526.222 861.192 530.349 861.032 534.465 860.851 539.153 860.401 543.84 860.06 548.698 858.498 550.21 856.815 550.641 854.842 550.581 851.557 550.471 848.251 550.551 845.176 550.551 844.115 549.92 843.233 549.399 842.442 548.928 842.282 548.537 842.091 548.297 842.112 548.067 842.502 542.508 840.89 537.089 841.2 531.51 841.511 525.891 841.881 520.162 841.13 514.634 839.888 505.519 841.27 496.384 840.309 487.36 839.648 481.13 839.818 474.94 839.588 468.46 840.219 467.989 840.98 467.418 842.142 466.547 848.201 465.445 854.872 464.634 861.522 467.398 862.594 468.851 862.824 470.613 862.724 472.517 862.634 474.7 862.965 476.934 862.674 479.097ZM915.528 577.964C914.957 579.036 914.367 580.158 913.585 581.64 911.041 583.573 907.756 584.384 904.14 584.384 900.675 584.384 897.42 583.804 894.495 581.58 892.091 579.056 892.492 575.681 892.502 572.395 892.512 569.932 892.502 567.468 892.502 564.743 893.623 563.371 894.875 561.849 895.667 560.887 899.513 559.174 902.888 559.715 906.214 559.605 910.38 559.475 913.695 560.797 915.538 565.274 915.528 569.21 915.528 573.577 915.528 577.964ZM915.548 479.097C914.136 489.403 915.028 499.76 914.767 510.086 913.405 514.023 914.036 518.089 913.956 522.105 913.876 526.222 914.066 530.349 913.906 534.465 913.725 539.153 913.275 543.84 912.934 548.698 911.372 550.21 909.689 550.641 907.716 550.581 904.431 550.471 901.125 550.551 898.051 550.551 896.989 549.92 896.107 549.399 895.316 548.928 895.156 548.537 894.966 548.297 894.986 548.067 895.376 542.508 893.764 537.089 894.074 531.51 894.385 525.891 894.755 520.162 894.004 514.634 892.762 505.519 894.144 496.384 893.183 487.36 892.522 481.13 892.692 474.94 892.462 468.46 893.093 467.989 893.854 467.418 895.016 466.547 901.075 465.445 907.746 464.634 914.397 467.398 915.468 468.851 915.699 470.613 915.598 472.517 915.508 474.7 915.849 476.934 915.548 479.097ZM968.262 577.964C967.691 579.036 967.1 580.158 966.319 581.64 963.775 583.573 960.49 584.384 956.874 584.384 953.409 584.384 950.153 583.804 947.229 581.58 944.825 579.056 945.226 575.681 945.236 572.395 945.246 569.932 945.236 567.468 945.236 564.743 946.357 563.371 947.609 561.849 948.401 560.887 952.247 559.174 955.622 559.715 958.947 559.605 963.114 559.475 966.429 560.797 968.272 565.274 968.262 569.21 968.262 573.577 968.262 577.964ZM968.272 479.097C966.86 489.403 967.751 499.76 967.491 510.086 966.129 514.023 966.76 518.089 966.68 522.105 966.6 526.222 966.79 530.349 966.63 534.465 966.449 539.153 965.999 543.84 965.658 548.698 964.096 550.21 962.413 550.641 960.44 550.581 957.155 550.471 953.849 550.551 950.774 550.551 949.713 549.92 948.831 549.399 948.04 548.928 947.88 548.537 947.69 548.297 947.71 548.067 948.1 542.508 946.488 537.089 946.798 531.51 947.109 525.891 947.479 520.162 946.728 514.634 945.486 505.519 946.868 496.384 945.907 487.36 945.246 481.13 945.416 474.94 945.186 468.46 945.817 467.989 946.578 467.418 947.74 466.547 953.799 465.445 960.47 464.634 967.12 467.398 968.192 468.851 968.422 470.613 968.322 472.517 968.242 474.7 968.573 476.934 968.272 479.097Z" fill="#9C5BCD"/></g></svg>