<?xml version="1.0" standalone="no"?>
<!DOCTYPE svg PUBLIC "-//W3C//DTD SVG 20010904//EN"
 "http://www.w3.org/TR/2001/REC-SVG-20010904/DTD/svg10.dtd">
<svg version="1.0" xmlns="http://www.w3.org/2000/svg"
 width="337.000000pt" height="345.000000pt" viewBox="0 0 337.000000 345.000000"
 preserveAspectRatio="xMidYMid meet">

<g transform="translate(0.000000,345.000000) scale(0.100000,-0.100000)"
fill="#ffffff" stroke="none">
<path d="M1410 3266 c-209 -37 -383 -101 -554 -204 l-59 -35 47 -12 c87 -22
123 -83 107 -183 -4 -28 -6 -52 -4 -52 3 0 35 18 73 40 91 55 215 106 330 137
129 34 380 44 515 19 522 -96 920 -495 1010 -1013 19 -111 19 -318 0 -424 -29
-156 -95 -325 -179 -458 l-28 -43 -44 43 c-30 30 -45 38 -48 28 -7 -23 -49
-439 -44 -444 2 -2 103 7 223 20 121 14 224 25 230 25 5 0 -16 26 -48 58 l-58
58 50 75 c342 515 339 1184 -7 1704 -90 135 -282 327 -417 417 -164 109 -343
185 -540 229 -117 27 -441 35 -555 15z"/>
<path d="M610 2864 c-107 -12 -208 -23 -225 -23 l-29 -1 52 -53 c29 -29 52
-56 52 -60 0 -4 -29 -49 -64 -100 -379 -548 -364 -1266 38 -1800 76 -102 254
-270 357 -339 474 -317 1051 -353 1560 -97 69 34 229 134 229 142 0 1 -22 2
-49 3 -94 1 -137 52 -134 156 l2 68 -59 -40 c-419 -285 -991 -277 -1409 18
-85 60 -233 208 -293 293 -260 368 -301 863 -102 1262 44 88 115 200 135 213
6 3 30 -13 54 -36 53 -52 47 -68 75 192 22 208 23 229 13 227 -5 -1 -96 -12
-203 -25z"/>
<path d="M1112 2460 c-63 -39 -62 -26 -62 -710 0 -684 -1 -671 62 -710 32 -19
49 -20 538 -20 489 0 506 1 538 20 61 38 62 43 62 535 l0 445 -214 0 -215 0
-20 26 c-20 25 -21 39 -21 230 l0 204 -317 0 c-301 0 -320 -1 -351 -20z m648
-530 c24 -24 26 -67 3 -92 -15 -16 -36 -18 -245 -18 -215 0 -229 1 -248 20
-11 11 -20 31 -20 45 0 14 9 34 20 45 19 19 33 20 245 20 212 0 226 -1 245
-20z m2 -267 c24 -21 23 -68 -2 -93 -19 -19 -33 -20 -242 -20 -214 0 -223 1
-245 22 -28 26 -30 61 -3 88 19 19 33 20 247 20 197 0 229 -2 245 -17z m-8
-264 c17 -13 26 -30 26 -49 0 -19 -9 -36 -26 -49 -25 -20 -39 -21 -241 -21
-214 0 -214 0 -238 25 -14 13 -25 34 -25 45 0 12 11 32 25 45 24 25 24 25 238
25 202 0 216 -1 241 -21z"/>
<path d="M1920 2280 l0 -130 132 0 133 0 -130 130 c-71 72 -131 130 -132 130
-2 0 -3 -58 -3 -130z"/>
</g>
</svg>
