<svg width="38" height="38" xmlns="http://www.w3.org/2000/svg" xmlns:xlink="http://www.w3.org/1999/xlink" xml:space="preserve" overflow="hidden"><defs><clipPath id="clip0"><rect x="781" y="259" width="38" height="38"/></clipPath></defs><g clip-path="url(#clip0)" transform="translate(-781 -259)"><path d="M35.6484 7.37192C36.3637 7.72757 36.83 8.23932 37.2153 8.83801 37.563 9.37741 37.7744 9.95041 37.8297 10.6005 37.8495 10.8316 37.9799 11.0944 37.9127 11.3177 37.7823 11.7583 37.8199 12.2286 37.5867 12.6613 37.3773 13.0486 37.2113 13.4497 36.9426 13.8152 36.3992 14.5542 35.6603 14.973 34.8403 15.3129 34.6644 15.386 34.4332 15.2457 34.3127 15.471 34.0262 15.4571 33.7437 15.4769 33.4354 15.6923 33.4354 18.1443 33.4354 20.6951 33.4354 23.2637 30.4558 23.2637 27.5197 23.2637 24.5401 23.2637 24.5401 24.3742 24.5401 25.4668 24.5401 26.5733 16.3463 26.5733 8.1919 26.5733 0.0158069 26.5733 0.0158069 23.6727 0.0158069 20.7682 0.0158069 17.844 1.4977 17.844 2.97366 17.844 4.49112 17.844 4.49112 14.8802 4.49112 11.9361 4.49112 8.97236 7.70584 8.97236 10.881 8.97236 14.0444 8.97236 14.4198 8.34799 14.485 8.10496 15.7397 7.28103 15.7397 7.08542 15.7397 6.874 15.7397 6.66259 16.121 5.63909 16.7316 4.82109 17.6325 4.18882 18.5276 3.56049 19.5116 3.37279 20.5726 3.41626 20.8473 2.74249 21.2464 2.15171 21.7502 1.65182 22.2679 1.14007 22.8488 0.703405 23.5581 0.448519 24.228 0.209441 24.9076-0.0256861 25.615-0.00197586 26.3164 0.0237103 27.0119 0.136334 27.6778 0.43864 28.3575 0.74885 28.9423 1.15588 29.4857 1.65774 30.0231 2.15566 30.3966 2.7583 30.7048 3.41626 31.5208 3.35105 32.2875 3.49529 33.0047 3.77981 33.7595 4.08014 34.3542 4.63931 34.8403 5.28542 35.2987 5.90386 35.5615 6.60924 35.6484 7.37192ZM6.75743 17.8598C12.7107 17.8598 18.6106 17.8598 24.5303 17.8598 24.5303 18.9406 24.5303 20.0016 24.5303 21.0626 24.5303 21.0784 24.5421 21.0982 24.552 21.112 24.5638 21.1278 24.5797 21.1377 24.5698 21.1278 26.7827 21.1278 28.968 21.1278 31.1573 21.1278 31.1573 19.2784 31.1573 17.4527 31.1573 15.5935 30.9538 15.5935 30.7601 15.5935 30.5665 15.5935 26.3994 15.5935 22.2323 15.5935 18.0653 15.5935 17.5713 15.5935 17.0951 15.4749 16.6249 15.3504 16.0321 15.1963 15.4808 14.9236 15.0106 14.5384 14.3072 13.9654 13.8942 13.1987 13.6176 12.3392 13.4872 11.9302 13.5484 11.4837 13.341 11.1201 11.1438 11.1201 8.95656 11.1201 6.7594 11.1201 6.75743 13.3607 6.75743 15.5816 6.75743 17.8598ZM4.50495 23.3783C6.03229 23.3783 7.50628 23.3783 9.00398 23.3783 8.98619 22.6216 9.02769 21.8866 8.97829 21.1713 7.46281 21.1713 5.98684 21.1713 4.50495 21.1713 4.50495 21.9142 4.50495 22.6354 4.50495 23.3783Z" fill="#FFFFFF" transform="matrix(1 0 0 1.00524 781.034 259)"/><path d="M0 37.8021C0 34.8541 0 31.9239 0 28.974 8.16029 28.974 16.3127 28.974 24.469 28.974 24.5599 29.4482 24.5935 35.7907 24.5105 37.8021 16.3581 37.8021 8.20573 37.8021 0 37.8021ZM8.98817 32.1669C7.46083 32.1669 5.98684 32.1669 4.48915 32.1669 4.50693 32.9237 4.46544 33.6587 4.51483 34.374 6.03031 34.374 7.50628 34.374 8.98817 34.374 8.98817 33.6311 8.98817 32.9079 8.98817 32.1669Z" fill="#FFFFFF" transform="matrix(1 0 0 1.00524 781.034 259)"/></g></svg>