<?xml version="1.0" standalone="no"?>
<!DOCTYPE svg PUBLIC "-//W3C//DTD SVG 20010904//EN"
 "http://www.w3.org/TR/2001/REC-SVG-20010904/DTD/svg10.dtd">
<svg version="1.0" xmlns="http://www.w3.org/2000/svg"
 width="512.000000pt" height="512.000000pt" viewBox="0 0 512.000000 512.000000"
 preserveAspectRatio="xMidYMid meet">

<g transform="translate(0.000000,512.000000) scale(0.100000,-0.100000)"
fill="#ffffff" stroke="none">
<path d="M2431 5105 c-173 -39 -335 -163 -411 -315 -12 -24 -32 -69 -44 -100
-20 -54 -21 -69 -24 -787 l-3 -732 -732 -3 c-726 -3 -732 -3 -790 -25 -204
-78 -339 -216 -400 -408 -31 -98 -31 -252 0 -350 61 -192 196 -330 400 -408
58 -22 64 -22 790 -25 l732 -3 3 -732 c3 -726 3 -732 25 -790 78 -204 216
-339 408 -400 98 -31 252 -31 350 0 192 61 330 196 408 400 22 58 22 64 25
790 l3 732 732 3 c726 3 732 3 790 25 204 78 339 216 400 408 17 54 22 95 22
175 0 80 -5 121 -22 175 -61 192 -196 330 -400 408 -58 22 -64 22 -790 25
l-732 3 -3 732 c-3 726 -3 732 -25 790 -77 202 -216 339 -403 398 -85 27 -225
33 -309 14z"/>
</g>
</svg>
