<svg width="38" height="38" xmlns="http://www.w3.org/2000/svg" xmlns:xlink="http://www.w3.org/1999/xlink" xml:space="preserve" overflow="hidden"><defs><clipPath id="clip0"><rect x="88" y="240" width="38" height="38"/></clipPath></defs><g clip-path="url(#clip0)" transform="translate(-88 -240)"><path d="M114.58 240.015C115.493 240.015 116.316 239.968 117.128 240.036 117.47 240.065 117.864 240.262 118.113 240.504 120.572 242.923 123.017 245.357 125.427 247.825 125.714 248.12 125.921 248.635 125.921 249.048 125.948 257.379 125.946 265.708 125.94 274.039 125.938 276.222 124.295 277.859 122.114 277.878 121.317 277.884 120.519 277.88 119.632 277.88 119.632 277.627 119.632 277.403 119.632 277.182 119.632 273.731 119.634 270.283 119.632 266.832 119.629 264.318 118.054 262.734 115.552 262.732 109.849 262.73 104.146 262.73 98.4412 262.732 95.9672 262.732 94.3727 264.318 94.3706 266.777 94.3685 270.228 94.3706 273.676 94.3706 277.127 94.3706 277.355 94.3706 277.58 94.3706 278 93.025 277.867 91.7026 277.901 90.4772 277.574 88.9923 277.18 88.0664 275.703 88.0643 274.157 88.0538 264.019 88.0517 253.878 88.0643 243.739 88.0664 241.753 89.6525 240.074 91.6203 240.032 94.185 239.977 96.7539 240.019 99.4198 240.019 99.4198 240.259 99.4198 240.479 99.4198 240.7 99.4198 243.75 99.4177 246.8 99.4198 249.852 99.4219 251.602 100.451 252.638 102.195 252.638 105.395 252.64 108.594 252.64 111.792 252.638 113.542 252.636 114.574 251.606 114.576 249.86 114.578 246.831 114.576 243.803 114.576 240.774 114.58 240.542 114.58 240.316 114.58 240.015Z" fill="#FFFFFF"/><path d="M117.101 277.852C110.345 277.852 103.661 277.852 96.9268 277.852 96.9163 277.635 96.8973 277.433 96.8973 277.23 96.8952 273.759 96.8952 270.289 96.8973 266.817 96.8973 265.691 97.3318 265.261 98.4686 265.261 104.151 265.261 109.833 265.261 115.517 265.261 116.677 265.261 117.101 265.693 117.101 266.87 117.103 270.506 117.101 274.145 117.101 277.852Z" fill="#FFFFFF"/><path d="M101.978 250.065C101.978 246.705 101.978 243.394 101.978 240.049 105.321 240.049 108.635 240.049 111.999 240.049 111.999 243.366 111.999 246.694 111.999 250.065 108.685 250.065 105.357 250.065 101.978 250.065Z" fill="#FFFFFF"/></g></svg>