<?xml version="1.0" standalone="no"?>
<!DOCTYPE svg PUBLIC "-//W3C//DTD SVG 20010904//EN"
 "http://www.w3.org/TR/2001/REC-SVG-20010904/DTD/svg10.dtd">
<svg version="1.0" xmlns="http://www.w3.org/2000/svg"
 width="512.000000pt" height="512.000000pt" viewBox="0 0 512.000000 512.000000"
 preserveAspectRatio="xMidYMid meet">

<g transform="translate(0.000000,512.000000) scale(0.100000,-0.100000)"
fill="#ffffff" stroke="none">
<path d="M470 5104 c-221 -47 -408 -236 -455 -459 -13 -60 -15 -311 -15 -1752
l0 -1683 225 0 225 0 0 1730 0 1730 364 0 365 0 -10 33 c-37 133 -168 286
-299 350 -128 63 -264 81 -400 51z"/>
<path d="M1326 5044 c66 -93 118 -201 146 -303 31 -110 30 -333 0 -445 -29
-104 -90 -228 -152 -311 l-49 -65 1352 0 c1150 0 1362 3 1422 15 270 57 475
309 475 585 0 276 -205 528 -475 585 -60 12 -272 15 -1422 15 l-1352 0 55 -76z"/>
<path d="M750 4156 l0 -215 57 20 c154 53 289 186 348 344 l25 65 -215 0 -215
0 0 -214z"/>
<path d="M4443 3329 l-223 -469 0 -75 0 -75 450 0 450 0 0 75 0 75 -220 462
c-121 254 -224 465 -228 469 -4 4 -107 -204 -229 -462z"/>
<path d="M750 1810 l0 -1810 1585 0 1585 0 0 1810 0 1810 -1585 0 -1585 0 0
-1810z m1192 890 l-277 -370 -207 207 c-115 114 -208 212 -208 217 0 13 192
206 204 206 6 0 49 -38 96 -85 l85 -85 173 230 172 230 120 -90 120 -90 -278
-370z m1368 -140 l0 -150 -455 0 -455 0 0 150 0 150 455 0 455 0 0 -150z
m-1368 -760 l-277 -370 -207 207 c-115 114 -208 212 -208 217 0 13 192 206
204 206 6 0 49 -38 96 -85 l85 -85 173 230 172 230 120 -90 120 -90 -278 -370z
m1368 -140 l0 -150 -455 0 -455 0 0 150 0 150 455 0 455 0 0 -150z m-1368
-760 l-277 -370 -207 207 c-115 114 -208 212 -208 217 0 13 192 206 204 206 6
0 49 -38 96 -85 l85 -85 173 230 172 230 120 -90 120 -90 -278 -370z m1368
-140 l0 -150 -455 0 -455 0 0 150 0 150 455 0 455 0 0 -150z"/>
<path d="M4220 1660 l0 -750 450 0 450 0 0 750 0 750 -450 0 -450 0 0 -750z"/>
<path d="M4220 305 l0 -305 450 0 450 0 0 305 0 305 -450 0 -450 0 0 -305z"/>
</g>
</svg>
